<svg xmlns="http://www.w3.org/2000/svg" viewBox="0 0 96 96" role="img" aria-label="KeibaCICD mark">
  <defs>
    <linearGradient id="g" x1="0" y1="0" x2="1" y2="1">
      <stop offset="0" stop-color="#10b981"/>
      <stop offset="1" stop-color="#0ea5e9"/>
    </linearGradient>
  </defs>
  <rect x="10" y="10" width="76" height="76" rx="18" fill="url(#g)"/>
  <path fill="rgba(255,255,255,0.22)" d="M64 24c-10 1-18 6-22 14-6 1-11 5-13 11-2 6 0 13 5 17 5 5 13 7 20 4 8-3 13-11 12-20 4-3 6-7 7-12 1-5-2-10-9-14z"/>
  <path fill="#ffffff" d="M33 68V28h10v14l13-14h13L52 46l17 22H56L43 51v17H33z"/>
</svg>
